{
  "accessors": [
    {
      "bufferView": 2,
      "componentType": 5126,
      "count": 19346,
      "max": [
        13.837295532226563,
        45.35023880004883,
        12.749658584594727
      ],
      "min": [
        -16.340065002441406,
        -0.1479453444480896,
        -4.681120872497559
      ],
      "type": "VEC3"
    },
    {
      "bufferView": 2,
      "byteOffset": 232152,
      "componentType": 5126,
      "count": 19346,
      "max": [
        0.9999586343765259,
        0.9999766945838928,
        0.9999819993972778
      ],
      "min": [
        -0.9999753832817078,
        -0.9999871253967285,
        -0.9999487996101379
      ],
      "type": "VEC3"
    },
    {
      "bufferView": 1,
      "componentType": 5126,
      "count": 19346,
      "max": [
        0.9912269711494446,
        0.9898890256881714
      ],
      "min": [
        0.009836000390350819,
        0.008513987064361572
      ],
      "type": "VEC2"
    },
    {
      "bufferView": 0,
      "componentType": 5125,
      "count": 110178,
      "type": "SCALAR"
    }
  ],
  "asset": {
    "extras": {
      "author": "SDPM (https://sketchfab.com/sashtidharshanpm)",
      "license": "CC-BY-4.0 (http://creativecommons.org/licenses/by/4.0/)",
      "source": "https://sketchfab.com/3d-models/giraffe-7c91bd719e594fcc930f3646db843265",
      "title": "Giraffe"
    },
    "generator": "Sketchfab-11.78.0",
    "version": "2.0"
  },
  "bufferViews": [
    {
      "buffer": 0,
      "byteLength": 440712,
      "name": "floatBufferViews",
      "target": 34963
    },
    {
      "buffer": 0,
      "byteLength": 154768,
      "byteOffset": 440712,
      "byteStride": 8,
      "name": "floatBufferViews",
      "target": 34962
    },
    {
      "buffer": 0,
      "byteLength": 464304,
      "byteOffset": 595480,
      "byteStride": 12,
      "name": "floatBufferViews",
      "target": 34962
    }
  ],
  "buffers": [
    {
      "byteLength": 1059784,
      "uri": "scene.bin"
    }
  ],
  "images": [
    {
      "uri": "textures/material_baseColor.png"
    }
  ],
  "materials": [
    {
      "doubleSided": true,
      "name": "material",
      "pbrMetallicRoughness": {
        "baseColorTexture": {
          "index": 0
        }
      }
    }
  ],
  "meshes": [
    {
      "name": "Object_0",
      "primitives": [
        {
          "attributes": {
            "NORMAL": 1,
            "POSITION": 0,
            "TEXCOORD_0": 2
          },
          "indices": 3,
          "material": 0,
          "mode": 4
        }
      ]
    }
  ],
  "nodes": [
    {
      "children": [
        1
      ],
      "matrix": [
        1.0,
        0.0,
        0.0,
        0.0,
        0.0,
        2.220446049250313e-16,
        -1.0,
        0.0,
        0.0,
        1.0,
        2.220446049250313e-16,
        0.0,
        0.0,
        0.0,
        0.0,
        1.0
      ],
      "name": "Sketchfab_model"
    },
    {
      "children": [
        2
      ],
      "name": "root"
    },
    {
      "children": [
        3
      ],
      "matrix": [
        1.0,
        0.0,
        0.0,
        0.0,
        0.0,
        2.220446049250313e-16,
        1.0,
        0.0,
        0.0,
        -1.0,
        2.220446049250313e-16,
        0.0,
        0.0,
        0.0,
        0.0,
        1.0
      ],
      "name": "GLTF_SceneRootNode"
    },
    {
      "children": [
        4
      ],
      "matrix": [
        0.08378096669912338,
        0.0,
        0.0,
        0.0,
        0.0,
        0.08378096669912338,
        0.0,
        0.0,
        0.0,
        0.0,
        0.08378096669912338,
        0.0,
        0.014082078821957111,
        -0.2543351650238037,
        0.21060159802436829,
        1.0
      ],
      "name": "node_id30_0"
    },
    {
      "mesh": 0,
      "name": "Object_4"
    }
  ],
  "samplers": [
    {
      "magFilter": 9729,
      "minFilter": 9987,
      "wrapS": 10497,
      "wrapT": 10497
    }
  ],
  "scene": 0,
  "scenes": [
    {
      "name": "Sketchfab_Scene",
      "nodes": [
        0
      ]
    }
  ],
  "textures": [
    {
      "sampler": 0,
      "source": 0
    }
  ]
}
